<?xml version="1.0" standalone="no"?><!DOCTYPE svg PUBLIC "-//W3C//DTD SVG 1.1//EN" "http://www.w3.org/Graphics/SVG/1.1/DTD/svg11.dtd"><svg t="1724514237549" class="icon" viewBox="0 0 1024 1024" version="1.1" xmlns="http://www.w3.org/2000/svg" p-id="12038" xmlns:xlink="http://www.w3.org/1999/xlink" width="32" height="32"><path d="M512 128c211.968 0 384 172.032 384 384S723.968 896 512 896 128 723.968 128 512 300.032 128 512 128z m0 76.8c-169.728 0-307.2 137.472-307.2 307.2 0 169.728 137.472 307.2 307.2 307.2 169.728 0 307.2-137.472 307.2-307.2 0-169.728-137.472-307.2-307.2-307.2z" fill="#2c2c2c" p-id="12039"></path><path d="M512 582.4c61.552 0 107.792 35.232 138.72 105.68a16 16 0 0 1-24.064 19.344C585.728 677.728 547.52 662.88 512 662.88c-35.52 0-73.744 14.848-114.688 44.528a16 16 0 0 1-24.064-19.328C404.192 617.632 450.448 582.4 512 582.4zM416 416c0-31.872-25.728-57.6-57.6-57.6a57.52 57.52 0 0 0-57.6 57.6c0 31.872 25.728 57.6 57.6 57.6S416 447.872 416 416zM723.2 416c0-31.872-25.728-57.6-57.6-57.6A57.52 57.52 0 0 0 608 416c0 31.872 25.728 57.6 57.6 57.6s57.6-25.728 57.6-57.6z" fill="#2c2c2c" p-id="12040"></path></svg>